# xmcd CD database file
#
# Track frame offsets:
#	150
#	12000
#	31800
#	42300
#	63600
#	82800
#	95700
#	109200
#	126900
#	136050
#	145500
#	160650
#	173250
#	184500
#	196500
#	217200
#
# Disc length: 3106 seconds
#
# Revision: 0
# Processed by: cddbd v1.5.2PL0 Copyright (c) Steve Scherf et al.
# Submitted via: Feurio! 1.68 - http://www.feurio.com
#
DISCID=c80c2010
DTITLE=Various Artist - Willie Nelson - On The Road Again
DYEAR=1900
DGENRE=
TTITLE0=Willie - Angel Eyes
TTITLE1=Willie - Angel Flying Too Close..
TTITLE2=Willie - Blue Eyes Cryin In The Rain
TTITLE3=Willie - City Of NO
TTITLE4=Willie - Georgia
TTITLE5=Willie - Good Hearted Women
TTITLE6=Willie - Heartbreakhotel
TTITLE7=Willie - Help Me Make It ....
TTITLE8=Willie - If You Got The Money...
TTITLE9=Willie - In The Jailhouse Now
TTITLE10=Willie - Mammas Dont Let Your.....
TTITLE11=Willie - Me And Paul
TTITLE12=Willie - On The Road Again
TTITLE13=Willie - Railroad Lady
TTITLE14=Willie - Uncloudy Day
TTITLE15=Willie - Whiskey River
EXTD=
EXTT0=
EXTT1=
EXTT2=
EXTT3=
EXTT4=
EXTT5=
EXTT6=
EXTT7=
EXTT8=
EXTT9=
EXTT10=
EXTT11=
EXTT12=
EXTT13=
EXTT14=
EXTT15=
PLAYORDER=
